{"title":"2012 (2009) PROPER TS XviD-MAX","uid":5182409,"size":1471425917,"categoryP":"video","categoryS":"movies","magnet":"?xt=urn:btih:09fa7dedf6ecf6d4b3e66891b1c8f5cc0c6f5d0c&amp;dn=2012+%282009%29+PROPER+TS+XviD-MAX&amp;tr=udp%3A%2F%2Ftracker.openbittorrent.com%3A80&amp;tr=udp%3A%2F%2Fopen.demonii.com%3A1337&amp;tr=udp%3A%2F%2Ftracker.coppersurfer.tk%3A6969&amp;tr=udp%3A%2F%2Fexodus.desync.com%3A6969","seeders":1,"leechers":0,"uploader":"extremezone","files":-1,"time":1259311701,"description":"2012 (2009) R5 DVDRip XviD-MAX (English BEST QUALITY) &lt;a href=&quot;\nhttp://torrents.thepiratebay.se/5193947/2012_(2009)_R5_DVDRip_XviD-MAX.5193947.TPB.torrent&quot; rel=&quot;nofollow&quot; target=&quot;_NEW&quot;&gt;\nhttp://torrents.thepiratebay.se/5193947/2012_(2009)_R5_DVDRip_XviD-MAX.5193947.TPB.torrent&lt;/a&gt;\n\n2012 (2009) PROPER TS XviD-MAX\n\nFormat                           : AVI\nFormat/Info                      : Audio Video Interleave\nFormat profile                   : OpenDML\nFile size                        : 1.37 GiB\nDuration                         : 2h 22mn\nOverall bit rate                 : 1 377 Kbps\nWriting application              : VirtualDubMod 1.5.10.2 (build 2542/release)\nWriting library                  : VirtualDubMod build 2542/release\nOriginal source form             : MAX TORRENTZ\nCopyright                        : SIGISMUNT\n\nVideo\nID                               : 0\nFormat                           : MPEG-4 Visual\nFormat profile                   : AdvancedSimple@L5\nFormat settings, BVOP            : Yes\nFormat settings, QPel            : No\nFormat settings, GMC             : No warppoints\nFormat settings, Matrix          : Default (H.263)\nMuxing mode                      : Packed bitstream\nCodec ID                         : XVID\nCodec ID/Hint                    : XviD\nDuration                         : 2h 22mn\nBit rate                         : 1 229 Kbps\nWidth                            : 720 pixels\nHeight                           : 288 pixels\nDisplay aspect ratio             : 2.500\nFrame rate                       : 25.000 fps\nResolution                       : 24 bits\nColorimetry                      : 4:2:0\nScan type                        : Progressive\nBits/(Pixel*Frame)               : 0.237\nStream size                      : 1.22 GiB (89%)\nWriting library                  : XviD 1.2.1 (UTC 2008-12-04)\n\nAudio\nID                               : 1\nFormat                           : MPEG Audio\nFormat version                   : Version 1\nFormat profile                   : Layer 3\nCodec ID                         : 55\nCodec ID/Hint                    : MP3\nDuration                         : 2h 22mn\nBit rate mode                    : Variable\nBit rate                         : 139 Kbps\nChannel(s)                       : 2 channels\nSampling rate                    : 44.1 KHz\nResolution                       : 16 bits\nStream size                      : 142 MiB (10%)\nAlignment                        : Aligned on interleaves\nInterleave, duration             : 26 ms (0.65 video frame)\nInterleave, preload duration     : 155 ms\nNote: Best quality untill dvd copy will be out (aprox. 2 months) , perfect video with perfect audio sync &lt;a href=&quot;\nhttp://www.imdb.com/title/tt1190080/&quot; rel=&quot;nofollow&quot; target=&quot;_NEW&quot;&gt;\nhttp://www.imdb.com/title/tt1190080/&lt;/a&gt;\n\n\nScreens: &lt;a href=&quot;\nhttp://www.postimg.com/image/9000/8182.jpg&quot; rel=&quot;nofollow&quot; target=&quot;_NEW&quot;&gt;\nhttp://www.postimg.com/image/9000/8182.jpg&lt;/a&gt; &lt;a href=&quot;\nhttp://www.postimg.com/image/9000/8138.jpg&quot; rel=&quot;nofollow&quot; target=&quot;_NEW&quot;&gt;\nhttp://www.postimg.com/image/9000/8138.jpg&lt;/a&gt; &lt;a href=&quot;\nhttp://www.postimg.com/image/9000/8139.jpg&quot; rel=&quot;nofollow&quot; target=&quot;_NEW&quot;&gt;\nhttp://www.postimg.com/image/9000/8139.jpg&lt;/a&gt; &lt;a href=&quot;\nhttp://www.postimg.com/image/9000/8140.jpg&quot; rel=&quot;nofollow&quot; target=&quot;_NEW&quot;&gt;\nhttp://www.postimg.com/image/9000/8140.jpg&lt;/a&gt;\n\nScreenCaps: &lt;a href=&quot;\nhttp://www.postimg.com/image/9000/8141.jpg&quot; rel=&quot;nofollow&quot; target=&quot;_NEW&quot;&gt;\nhttp://www.postimg.com/image/9000/8141.jpg&lt;/a&gt;\n\n2012 (2009) PROPER TS XviD-MAX Torrent Free Download &lt;a href=&quot;\nhttp://thepiratebay.se/user/extremezone/0/7&quot; rel=&quot;nofollow&quot; target=&quot;_NEW&quot;&gt;\nhttp://thepiratebay.se/user/extremezone/0/7&lt;/a&gt;","torrent":{"xt":"urn:btih:09fa7dedf6ecf6d4b3e66891b1c8f5cc0c6f5d0c","amp;dn":"2012+%282009%29+PROPER+TS+XviD-MAX","amp;tr":["udp%3A%2F%2Ftracker.openbittorrent.com%3A80","udp%3A%2F%2Fopen.demonii.com%3A1337","udp%3A%2F%2Ftracker.coppersurfer.tk%3A6969","udp%3A%2F%2Fexodus.desync.com%3A6969"],"infoHash":"09fa7dedf6ecf6d4b3e66891b1c8f5cc0c6f5d0c","infoHashBuffer":{"type":"Buffer","data":[9,250,125,237,246,236,246,212,179,230,104,145,177,200,245,204,12,111,93,12]},"announce":[],"urlList":[]}}